<svg xmlns="http://www.w3.org/2000/svg" viewBox="0 0 26.945 34.09"><path d="m13.62.017l-.147-.017-13.473 1.412v24.661l13.474 8.02 13.426-7.99.042-.024v-24.664m-1.922 10.715l-11.52-6.793v-.104l-.087.05-.088-.056v.109l-11.4 6.785v-8.971l11.549-1.212 11.546 1.212v8.98m-11.615-5.34l11.518 6.713-4.478 2.64-7.093-4.221-.015 1.415 5.9 3.513-.86.507-5.03-2.992-.015 1.415 3.827 2.275-.782.523-3.03-1.787-.011 1.412 1.854 1.091-1.8 1.081-11.357-6.75m-.109 1.505l11.411 6.791.017 1.044-7.943-4.728-.001 1.416 7.978 4.795.019 1.076-7.974-4.74-.017 1.419 8.02 4.822.047.024 8.142-4.872-.011-5.177 3.415-2.036v10.02l-11.546 6.872-11.548-6.872v-9.851"/></svg>
