<svg xmlns="http://www.w3.org/2000/svg" viewBox="0 0 11.791 11.894" fill="#f0c52e"><g><path d="M3.847 4.987a.5 .5 0 0 0 .5 -.5V2.558a1.567 1.567 0 1 1 3.135 0V4.491a.5 .5 0 0 0 .991 0V2.558a2.559 2.559 0 0 0 -5.117 0V4.491A.5 .5 0 0 0 3.847 4.987"/><path d="m11.594 3.873h-2.63v.618a.991 .991 0 1 1 -1.982 0v-.618h-2.144v.618a.991 .991 0 0 1 -1.982 0v-.618h-2.656a.186 .186 0 0 0 -.189 .241l1.734 7.06a1.015 1.015 0 0 0 .933 .719h6.439a1.015 1.015 0 0 0 .933 -.719l1.734-7.06a.185 .185 0 0 0 -.19 -.241"/></g></svg>
