<svg xmlns="http://www.w3.org/2000/svg" viewBox="0 0 38.099 38.097" fill="#fff"><path d="M19.049 0A19.049 19.049 0 1 0 38.1 19.049 19.07 19.07 0 0 0 19.049 0m0 36.578a17.529 17.529 0 1 1 17.53 -17.529A17.548 17.548 0 0 1 19.049 36.578"/><path d="M24.106 14.639a1.519 1.519 0 0 0 .846 -1.362V10.243a1.52 1.52 0 0 0 -1.519 -1.52H20.827c-3.707 0-5.749 1.941-5.749 5.467v.3H14.647a1.52 1.52 0 0 0 -1.519 1.519v3.034a1.52 1.52 0 0 0 1.519 1.52h.431v7.283a1.52 1.52 0 0 0 1.52 1.52h3.9a1.52 1.52 0 0 0 1.52 -1.52V20.565h1.085a1.521 1.521 0 0 0 1.51 -1.349l.346-3.03A1.522 1.522 0 0 0 24.106 14.639m-1 4.405H20.5v8.8H16.6v-8.8H14.647V16.01H16.6V14.19c0-2.476 1.1-3.947 4.229-3.947h2.605v3.034H21.8c-1.217 0-1.3.425-1.3 1.216v1.518h2.95"/></svg>
