<svg xmlns="http://www.w3.org/2000/svg" viewBox="0 0 38.099 38.097" fill="#fff"><path d="M19.049 0A19.049 19.049 0 1 0 38.1 19.049 19.07 19.07 0 0 0 19.049 0m0 36.578a17.529 17.529 0 1 1 17.53 -17.529A17.549 17.549 0 0 1 19.049 36.578"/><path d="m25.07 8.763h-12.04a4.565 4.565 0 0 0 -4.56 4.56v11.452a4.565 4.565 0 0 0 4.56 4.56h12.04a4.565 4.565 0 0 0 4.56 -4.56v-11.451a4.565 4.565 0 0 0 -4.56 -4.561m-12.04 1.52h12.04a3.043 3.043 0 0 1 3.04 3.04v2.969h-5.82a4.648 4.648 0 0 0 -6.482 0h-5.82v-2.968a3.043 3.043 0 0 1 3.04 -3.04m6.02 6.212a3.165 3.165 0 1 1 -3.164 3.165 3.168 3.168 0 0 1 3.165 -3.161m6.02 11.314h-12.04a3.043 3.043 0 0 1 -3.04 -3.039v-6.962h4.759a4.684 4.684 0 1 0 8.6 0h4.76v6.962a3.043 3.043 0 0 1 -3.037 3.039"/><rect x="23.286" y="11.801" width="2.811" height="2.81" rx=".76"/></svg>
