<svg xmlns="http://www.w3.org/2000/svg" viewBox="0 0 38.098 38.097" fill="#fff"><path d="M19.049 0A19.049 19.049 0 1 0 38.1 19.049 19.07 19.07 0 0 0 19.049 0m0 36.578A17.529 17.529 0 1 1 36.579 19.048 17.549 17.549 0 0 1 19.049 36.578"/><path d="M29.514 13.326a4.953 4.953 0 0 0 .244 -.614 .76 .76 0 0 0 -1.112 -.885 7.316 7.316 0 0 1 -1.949 .806 4.809 4.809 0 0 0 -8 3.6c0 .026 0 .053 0 .079a10.776 10.776 0 0 1 -6.89 -3.867 .76 .76 0 0 0 -1.246 .1 4.818 4.818 0 0 0 -.152 4.556 .761 .761 0 0 0 -.532 .708v.068a4.818 4.818 0 0 0 1.584 3.565 .761 .761 0 0 0 -.129 .705 4.8 4.8 0 0 0 2.546 2.89 7.441 7.441 0 0 1 -3.944 .61 .76 .76 0 0 0 -.5 1.394A12.27 12.27 0 0 0 28.331 16.7c0-.052 0-.1 0-.154a8.919 8.919 0 0 0 1.881 -2.042A.76 .76 0 0 0 29.514 13.326m-2.4 2.234a.76 .76 0 0 0 -.315 .652c.008.163.001.325.001.489A10.754 10.754 0 0 1 12.878 26.978a8.822 8.822 0 0 0 3.433 -1.656 .76 .76 0 0 0 -.455 -1.358 3.285 3.285 0 0 1 -2.517 -1.246 4.792 4.792 0 0 0 .75 -.141 .76 .76 0 0 0 -.049 -1.478A3.286 3.286 0 0 1 11.6 18.985a4.744 4.744 0 0 0 .85 .1A.76 .76 0 0 0 12.9 17.7a3.3 3.3 0 0 1 -1.406 -3.345 12.285 12.285 0 0 0 8.037 3.561 .75 .75 0 0 0 .622 -.271 .761 .761 0 0 0 .156 -.66 3.289 3.289 0 0 1 5.6 -3 .76 .76 0 0 0 .7 .226l.1-.02a.76 .76 0 0 0 .517 1.29"/></svg>
